<?xml version="1.0" encoding="UTF-8" standalone="no"?><!DOCTYPE svg PUBLIC "-//W3C//DTD SVG 1.1//EN" "http://www.w3.org/Graphics/SVG/1.1/DTD/svg11.dtd"><svg width="100%" height="100%" viewBox="0 0 74 72" version="1.1" xmlns="http://www.w3.org/2000/svg" xmlns:xlink="http://www.w3.org/1999/xlink" xml:space="preserve" xmlns:serif="http://www.serif.com/" style="fill-rule:evenodd;clip-rule:evenodd;stroke-linejoin:round;stroke-miterlimit:2;"><path d="M72.934,19.957l-7.013,43.029c-0.94,5.768 -6.386,9.687 -12.154,8.747l-37.424,-6.1c-5.767,-0.941 -9.687,-6.386 -8.747,-12.154l7.014,-43.029c0.94,-5.768 6.386,-9.687 12.153,-8.747l37.425,6.1c5.767,0.94 9.686,6.386 8.746,12.154Z" style="fill:#e3e3e3;"/><path d="M59.094,10.588l-0,47.507c-0,5.843 -4.744,10.588 -10.588,10.588l-37.918,-0c-5.844,-0 -10.588,-4.745 -10.588,-10.588l0,-47.507c0,-5.844 4.744,-10.588 10.588,-10.588l37.918,0c5.844,0 10.588,4.744 10.588,10.588Z" style="fill:#fff;"/><ellipse cx="18.016" cy="32.12" rx="2.639" ry="4.175" style="fill:#494949;"/><ellipse cx="40.634" cy="32.12" rx="2.639" ry="4.175" style="fill:#494949;"/><path d="M45.681,41.036c0,9.441 -7.421,17.106 -16.563,17.106c-9.141,-0 -16.563,-7.665 -16.563,-17.106l33.126,-0Z" style="fill:#be2424;"/><path d="M15.377,41.036l27.34,-0l0,1.703c0,1.574 -1.277,2.851 -2.851,2.851l-21.638,0c-1.574,0 -2.851,-1.277 -2.851,-2.851l-0,-1.703Z" style="fill:#494949;fill-opacity:0.36;"/><path d="M38.15,55.374c-2.598,1.75 -5.701,2.768 -9.032,2.768c-3.331,-0 -6.434,-1.018 -9.032,-2.768c1.489,-2.608 4.974,-4.439 9.032,-4.439c4.058,0 7.544,1.831 9.032,4.439Z" style="fill:#494949;fill-opacity:0.36;"/><path d="M20.086,55.374c1.489,-2.608 4.974,-4.439 9.032,-4.439c4.058,0 7.544,1.831 9.032,4.439c-2.598,1.75 -5.701,2.768 -9.032,2.768c-3.331,-0 -6.434,-1.018 -9.032,-2.768Z" style="fill:#ff6c6c;"/><path d="M42.717,41.036l0,1.703c0,1.574 -1.277,2.851 -2.851,2.851l-21.638,0c-1.574,0 -2.851,-1.277 -2.851,-2.851l-0,-1.703l27.34,-0Z" style="fill:#faefef;"/></svg>