<?xml version="1.0" encoding="UTF-8" standalone="no"?><!DOCTYPE svg PUBLIC "-//W3C//DTD SVG 1.1//EN" "http://www.w3.org/Graphics/SVG/1.1/DTD/svg11.dtd"><svg width="100%" height="100%" viewBox="0 0 373 45" version="1.1" xmlns="http://www.w3.org/2000/svg" xmlns:xlink="http://www.w3.org/1999/xlink" xml:space="preserve" xmlns:serif="http://www.serif.com/" style="fill-rule:evenodd;clip-rule:evenodd;stroke-linejoin:round;stroke-miterlimit:2;"><g><path d="M0,40.167l6.75,-0l0,-15.15l12.15,-0l-0,-6.1l-12.15,-0l0,-3.85c0,-3.45 1.75,-4.75 4.25,-4.75c2.45,-0 4.2,1.25 4.2,4.75l6.75,-0c0,-7.35 -4.4,-11.05 -10.95,-11.05c-6.55,-0 -11,3.65 -11,11.05l0,25.1Z" style="fill:#fff;fill-rule:nonzero;"/><rect x="24.95" y="4.667" width="6.75" height="35.5" style="fill:#fff;fill-rule:nonzero;"/><path d="M48.55,40.817c3.75,-0 6.8,-1.75 8.2,-5.1l0,4.45l6.2,-0l0,-12.1c0,-8.05 -5.4,-13.25 -13.15,-13.25c-7.85,-0 -13.35,5.35 -13.35,13.3c0,8.5 6.4,12.7 12.1,12.7Zm1.2,-6.3c-3.85,-0 -6.45,-2.75 -6.45,-6.7c-0,-3.95 2.6,-6.7 6.45,-6.7c3.85,-0 6.45,2.75 6.45,6.7c0,3.95 -2.6,6.7 -6.45,6.7Z" style="fill:#fff;fill-rule:nonzero;"/><path d="M77.35,40.817c6.35,-0 10.45,-3.35 10.45,-8.4c-0,-6 -5.75,-6.8 -9.15,-7.3c-2.5,-0.35 -4.5,-0.6 -4.5,-2.25c-0,-1.25 1,-2.35 3.25,-2.35c1.9,-0 3.1,0.85 3.25,2.2l6.65,-0c-0.15,-4.4 -3.9,-7.9 -10,-7.9c-6.1,-0 -10,3.4 -10,8.45c-0,6 5.6,6.75 9.2,7.25c2.5,0.35 4.5,0.55 4.5,2.3c-0,1.25 -1.05,2.3 -3.7,2.3c-2.45,-0 -3.65,-0.9 -3.7,-2.35l-6.75,-0c0.15,4.65 4.2,8.05 10.5,8.05Z" style="fill:#fff;fill-rule:nonzero;"/><path d="M92.55,40.167l6.75,-0l-0,-12.8c-0,-4.2 2.3,-6.25 5.45,-6.25c3.25,-0 5.45,1.95 5.45,6.25l-0,12.8l6.75,-0l-0,-12.8c-0,-8.95 -5.5,-12.55 -10.9,-12.55c-2.85,-0 -5.2,1.3 -6.75,3.7l-0,-13.85l-6.75,-0l-0,35.5Z" style="fill:#fff;fill-rule:nonzero;"/><path d="M134.15,40.817c6.8,-0 11.75,-4.15 12.85,-10.15l-6.8,-0c-0.95,2.35 -3.2,3.85 -6.05,3.85c-3.85,-0 -6.45,-2.75 -6.45,-6.7c-0,-3.95 2.6,-6.7 6.45,-6.7c2.85,-0 5.1,1.5 6.05,3.85l6.8,-0c-1.1,-6 -6.05,-10.15 -12.85,-10.15c-7.8,-0 -13.3,5.5 -13.3,13c0,7.5 5.5,13 13.3,13Z" style="fill:#fff;fill-rule:nonzero;"/><path d="M161.95,40.817c3.75,-0 6.8,-1.75 8.2,-5.1l-0,4.45l6.2,-0l0,-12.1c0,-8.05 -5.4,-13.25 -13.15,-13.25c-7.85,-0 -13.35,5.35 -13.35,13.3c0,8.5 6.4,12.7 12.1,12.7Zm1.2,-6.3c-3.85,-0 -6.45,-2.75 -6.45,-6.7c-0,-3.95 2.6,-6.7 6.45,-6.7c3.85,-0 6.45,2.75 6.45,6.7c0,3.95 -2.6,6.7 -6.45,6.7Z" style="fill:#fff;fill-rule:nonzero;"/><path d="M181.25,40.167l6.75,-0l0,-14.2c0,-3.65 1.75,-4.85 4.25,-4.85c2.45,-0 4.2,1.2 4.2,4.85l-0,0.25l6.75,-0l-0,-0.15c-0.05,-7.7 -4.45,-11.25 -10.95,-11.25c-6.55,-0 -11,3.6 -11,11.15l0,14.2Z" style="fill:#fff;fill-rule:nonzero;"/><path d="M218.65,40.817c7.65,-0 13.15,-5.05 13.15,-13.25l-0,-22.9l-6.75,-0l-0,13.95c-1.65,-2.5 -4.35,-3.8 -7.6,-3.8c-5.8,-0 -12.15,4.2 -12.15,12.7c-0,7.95 5.5,13.3 13.35,13.3Zm-0.05,-6.3c-3.85,-0 -6.45,-2.75 -6.45,-6.7c-0,-3.95 2.6,-6.7 6.45,-6.7c3.85,-0 6.45,2.75 6.45,6.7c-0,3.95 -2.6,6.7 -6.45,6.7Z" style="fill:#fff;fill-rule:nonzero;"/><path d="M246.2,40.817c6.35,-0 10.45,-3.35 10.45,-8.4c-0,-6 -5.75,-6.8 -9.15,-7.3c-2.5,-0.35 -4.5,-0.6 -4.5,-2.25c-0,-1.25 1,-2.35 3.25,-2.35c1.9,-0 3.1,0.85 3.25,2.2l6.65,-0c-0.15,-4.4 -3.9,-7.9 -10,-7.9c-6.1,-0 -10,3.4 -10,8.45c-0,6 5.6,6.75 9.2,7.25c2.5,0.35 4.5,0.55 4.5,2.3c-0,1.25 -1.05,2.3 -3.7,2.3c-2.45,-0 -3.65,-0.9 -3.7,-2.35l-6.75,-0c0.15,4.65 4.2,8.05 10.5,8.05Z" style="fill:#fff;fill-rule:nonzero;"/></g><g><path d="M268.66,40.438c3.27,-0.001 5.562,-2.23 5.562,-5.542c0,-3.584 -2.667,-5.292 -5,-5.292c-1.229,0 -2.271,0.479 -2.917,1.396l0,-5.625l-3.125,0l0,9.542c0,3.458 2.334,5.52 5.48,5.52Zm0.02,-2.916c-1.416,-0 -2.375,-1.021 -2.375,-2.5c0,-1.479 0.959,-2.5 2.375,-2.5c1.417,-0 2.375,1.021 2.375,2.5c0,1.479 -0.958,2.5 -2.375,2.5Z" style="fill:#fff;fill-rule:nonzero;"/><path d="M280.91,44.833c2.812,0 5.104,-1.437 5.104,-5.02l-0,-9.938l-3.125,0l-0,5.167c-0,1.583 -0.834,2.312 -1.959,2.312c-1.166,0 -1.958,-0.687 -1.958,-2.312l0,-5.167l-3.125,0l0,5.167c0,3.771 2.313,5.229 4.479,5.229c1.084,-0 1.979,-0.479 2.563,-1.375l-0,1.021c-0,1.562 -0.604,2.208 -1.979,2.208c-1,0 -1.542,-0.271 -1.855,-0.958l-3.125,-0c0.521,2.541 2.542,3.666 4.98,3.666Z" style="fill:#fff;fill-rule:nonzero;"/><path d="M297.91,40.438c2.645,-0.001 4.395,-1.417 4.395,-3.542c0,-2.438 -2.27,-2.834 -3.75,-3.042c-0.958,-0.146 -1.708,-0.229 -1.708,-0.854c0,-0.417 0.313,-0.813 1.083,-0.813c0.625,0.001 1.042,0.271 1.125,0.751l3.042,-0c-0.062,-1.855 -1.646,-3.334 -4.208,-3.334c-2.563,0 -4.209,1.459 -4.209,3.542c0,2.479 2.334,2.833 3.75,3.042c0.959,0.145 1.709,0.208 1.709,0.895c-0,0.438 -0.313,0.771 -1.271,0.771c-0.854,0 -1.25,-0.271 -1.271,-0.812l-3.083,-0c0.041,1.979 1.75,3.395 4.396,3.395Z" style="fill:#fff;fill-rule:nonzero;"/><path d="M308.243,40.438c2.562,-0.001 4.312,-1.396 4.312,-4.334l0,-0.312l-3.125,-0l0,0.312c0,1.084 -0.5,1.417 -1.187,1.417c-0.688,-0 -1.188,-0.334 -1.188,-1.417l0,-3.416l4.875,-0.001l0,-2.812l-4.875,-0l0,-3.646l-3.125,0l0,9.875c0,2.938 1.75,4.334 4.313,4.334Z" style="fill:#fff;fill-rule:nonzero;"/><path d="M319.139,40.438c3.041,-0.001 5.083,-1.771 5.083,-5.23l0,-5.333l-3.125,0l0,5.333c0,1.625 -0.792,2.313 -1.958,2.313c-1.167,-0 -1.959,-0.688 -1.959,-2.313l0,-5.333l-3.125,0l0,5.333c0,3.48 2.042,5.23 5.084,5.23Z" style="fill:#fff;fill-rule:nonzero;"/><path d="M331.41,40.438c3.145,-0.001 5.479,-2.063 5.479,-5.521l-0,-9.542l-3.125,0l-0,5.625c-0.646,-0.917 -1.688,-1.396 -2.917,-1.396c-2.333,0 -5,1.709 -5,5.292c0,3.312 2.292,5.541 5.563,5.541Zm-0.021,-2.916c-1.417,-0 -2.375,-1.021 -2.375,-2.5c-0,-1.479 0.958,-2.5 2.375,-2.5c1.416,-0 2.375,1.021 2.375,2.5c-0,1.479 -0.959,2.5 -2.375,2.5Z" style="fill:#fff;fill-rule:nonzero;"/><path d="M340.826,28.938c1.146,-0 2,-0.855 2,-2c0,-1.146 -0.854,-2 -2,-2c-1.146,-0 -2,0.854 -2,2c0,1.145 0.854,2 2,2Zm-1.562,11.229l3.125,-0l-0,-10.292l-3.125,0l-0,10.292Z" style="fill:#fff;fill-rule:nonzero;"/><path d="M349.847,40.438c3.042,-0.001 5.083,-1.771 5.083,-5.23l0,-5.333l-3.125,0l0,5.333c0,1.625 -0.791,2.313 -1.958,2.313c-1.167,-0 -1.958,-0.688 -1.958,-2.313l-0,-5.333l-3.125,0l-0,5.333c-0,3.48 2.041,5.23 5.083,5.23Z" style="fill:#fff;fill-rule:nonzero;"/><path d="M356.972,40.167l3.125,-0l0,-5.792c0,-1.375 0.667,-1.854 1.604,-1.854c0.917,-0 1.584,0.479 1.584,1.854l-0,5.792l3.125,-0l-0,-5.792c-0,-1.375 0.666,-1.854 1.583,-1.854c0.937,-0 1.604,0.479 1.604,1.854l0,5.792l3.125,-0l0,-5.792c0,-3.313 -1.917,-4.771 -4.417,-4.771c-1.479,0 -2.687,0.563 -3.458,1.646c-0.771,-1.083 -2,-1.646 -3.458,-1.646c-2.5,0 -4.417,1.459 -4.417,4.771l0,5.792Z" style="fill:#fff;fill-rule:nonzero;"/></g><rect x="221.887" y="0" width="47.895" height="4.017" style="fill:#f8f3ff;fill-opacity:0;"/></svg>
